<svg width="907" height="907" viewBox="0 0 907 907" fill="none" xmlns="http://www.w3.org/2000/svg">
<g filter="url(#filter0_d_201_2)">
<path d="M353.5 57.735C415.38 22.0085 491.62 22.0085 553.5 57.735L746.243 169.015C808.123 204.742 846.243 270.767 846.243 342.22V564.78C846.243 636.233 808.123 702.258 746.243 737.985L553.5 849.265C491.62 884.992 415.38 884.992 353.5 849.265L160.757 737.985C98.8773 702.258 60.7575 636.233 60.7575 564.78V342.22C60.7575 270.767 98.8773 204.742 160.757 169.015L353.5 57.735Z" fill="white"/>
</g>
<path d="M376 144.612C423.957 116.924 483.043 116.924 531 144.612L682.255 231.939C730.212 259.627 759.755 310.797 759.755 366.173V540.827C759.755 596.203 730.212 647.373 682.255 675.061L531 762.388C483.043 790.076 423.957 790.076 376 762.388L224.745 675.061C176.788 647.373 147.245 596.203 147.245 540.827V366.173C147.245 310.797 176.788 259.627 224.745 231.939L376 144.612Z" stroke="url(#paint0_linear_201_2)" stroke-width="50"/>
<path d="M321.061 545.826C319.194 545.826 317.666 545.23 316.478 544.038C315.289 542.846 314.695 541.314 314.695 539.441V407.129H269.366C267.499 407.129 265.971 406.533 264.783 405.341C263.594 403.979 263 402.446 263 400.743V373.413C263 371.539 263.594 370.007 264.783 368.815C265.971 367.623 267.499 367.027 269.366 367.027H406.371C408.238 367.027 409.766 367.623 410.954 368.815C412.143 370.007 412.737 371.539 412.737 373.413V400.743C412.737 402.446 412.143 403.979 410.954 405.341C409.766 406.533 408.238 407.129 406.371 407.129H361.042V539.441C361.042 541.314 360.448 542.846 359.26 544.038C358.071 545.23 356.543 545.826 354.676 545.826H321.061Z" fill="#0073B8"/>
<path d="M520.172 554C518.474 554 516.946 553.404 515.588 552.212C514.399 551.02 513.805 549.487 513.805 547.614V529.99C488.509 529.99 468.816 524.37 454.725 513.132C440.634 501.722 432.655 484.779 430.788 462.301C430.788 460.939 430.703 459.066 430.533 456.682C430.533 454.128 430.533 451.573 430.533 449.019C430.703 446.465 430.788 444.592 430.788 443.4C431.637 428.585 435.456 416.154 442.247 406.107C449.208 395.89 458.8 388.227 471.023 383.119C483.247 377.84 497.507 375.201 513.805 375.201V360.386C513.805 358.683 514.399 357.235 515.588 356.043C516.946 354.681 518.474 354 520.172 354H553.277C554.974 354 556.417 354.681 557.606 356.043C558.964 357.235 559.643 358.683 559.643 360.386V375.201C576.111 375.201 590.371 377.84 602.425 383.119C614.648 388.227 624.24 395.89 631.201 406.107C638.162 416.154 641.981 428.585 642.66 443.4C642.83 447.146 642.915 450.296 642.915 452.851C643.085 455.235 643 458.385 642.66 462.301C640.963 484.779 633.068 501.722 618.978 513.132C604.887 524.37 585.108 529.99 559.643 529.99V547.614C559.643 549.487 558.964 551.02 557.606 552.212C556.417 553.404 554.974 554 553.277 554H520.172ZM514.06 493.208V411.982C503.025 411.982 494.451 414.536 488.34 419.645C482.398 424.754 479.002 432.927 478.153 444.166C477.984 447.061 477.899 449.871 477.899 452.595C477.899 455.149 477.984 457.874 478.153 460.769C478.663 472.008 481.973 480.267 488.085 485.545C494.197 490.654 502.855 493.208 514.06 493.208ZM559.388 493.208C570.593 493.208 579.251 490.654 585.363 485.545C591.475 480.267 594.785 472.008 595.295 460.769C595.464 459.577 595.549 457.959 595.549 455.916C595.549 453.702 595.549 451.488 595.549 449.275C595.549 447.061 595.464 445.358 595.295 444.166C594.446 432.927 590.966 424.754 584.854 419.645C578.912 414.536 570.423 411.982 559.388 411.982V493.208Z" fill="#0073B8"/>
<defs>
<filter id="filter0_d_201_2" x="44.7573" y="22.9402" width="817.485" height="877.12" filterUnits="userSpaceOnUse" color-interpolation-filters="sRGB">
<feFlood flood-opacity="0" result="BackgroundImageFix"/>
<feColorMatrix in="SourceAlpha" type="matrix" values="0 0 0 0 0 0 0 0 0 0 0 0 0 0 0 0 0 0 127 0" result="hardAlpha"/>
<feOffset dy="8"/>
<feGaussianBlur stdDeviation="8"/>
<feComposite in2="hardAlpha" operator="out"/>
<feColorMatrix type="matrix" values="0 0 0 0 0 0 0 0 0 0 0 0 0 0 0 0 0 0 0.25 0"/>
<feBlend mode="normal" in2="BackgroundImageFix" result="effect1_dropShadow_201_2"/>
<feBlend mode="normal" in="SourceGraphic" in2="effect1_dropShadow_201_2" result="shape"/>
</filter>
<linearGradient id="paint0_linear_201_2" x1="203.003" y1="210.445" x2="1904.05" y2="1861.95" gradientUnits="userSpaceOnUse">
<stop stop-color="#24F3D2"/>
<stop offset="0.394" stop-color="#0674F0"/>
<stop offset="0.507" stop-color="#6961B5"/>
<stop offset="0.813" stop-color="#F34660"/>
<stop offset="1" stop-color="#EE078D"/>
</linearGradient>
</defs>
</svg>
