<svg width="22" height="22" viewBox="0 0 22 22" fill="none" xmlns="http://www.w3.org/2000/svg">
<path fill-rule="evenodd" clip-rule="evenodd" d="M18.9363 8.50352L21.5102 9.13516C21.7938 9.19961 22 9.45742 22 9.75391V12.332C22 12.6285 21.7938 12.8863 21.5102 12.9508L18.9363 13.5824C18.7945 14.0336 18.6141 14.4719 18.3949 14.8973L19.7098 17.0887C19.8645 17.3465 19.8258 17.6688 19.6195 17.875L17.7891 19.7055C17.5828 19.9117 17.2605 19.9504 17.0027 19.7957L14.8113 18.4809C14.3859 18.7 13.9477 18.8805 13.4965 19.0223L12.8777 21.5102C12.8004 21.7938 12.5426 22 12.2461 22H9.66797C9.37148 22 9.11367 21.7938 9.03633 21.5102L8.41758 19.0223C7.96641 18.8805 7.52813 18.7 7.10273 18.4809L4.91133 19.7957C4.65352 19.9504 4.33125 19.9117 4.125 19.7055L2.29453 17.875C2.08828 17.6688 2.04961 17.3465 2.2043 17.0887L3.51914 14.8973C3.3 14.4719 3.11953 14.0336 2.97773 13.5824L0.489844 12.9508C0.20625 12.8863 0 12.6285 0 12.332V9.75391C0 9.45742 0.20625 9.19961 0.489844 9.13516L2.97773 8.50352C3.11953 8.05234 3.3 7.61406 3.51914 7.18867L2.2043 4.99727C2.04961 4.73945 2.08828 4.41719 2.29453 4.21094L4.125 2.38047C4.33125 2.17422 4.65352 2.13555 4.91133 2.29023L7.10273 3.60508C7.52813 3.38594 7.96641 3.20547 8.41758 3.06367L9.03633 0.489844C9.11367 0.20625 9.37148 0 9.66797 0H12.2461C12.5426 0 12.8004 0.20625 12.8777 0.489844L13.4965 3.06367C13.9477 3.20547 14.3859 3.38594 14.8113 3.60508L17.0027 2.29023C17.2605 2.13555 17.5828 2.17422 17.7891 2.38047L19.6195 4.21094C19.8258 4.41719 19.8645 4.73945 19.7098 4.99727L18.3949 7.18867C18.6141 7.61406 18.7945 8.05234 18.9363 8.50352ZM7.73438 11.043C7.73438 12.8219 9.17813 14.2656 10.957 14.2656C12.7359 14.2656 14.1797 12.8219 14.1797 11.043C14.1797 9.26406 12.7359 7.82031 10.957 7.82031C9.17813 7.82031 7.73438 9.26406 7.73438 11.043Z" fill="#B0B0B0"/>
</svg>
